<svg width="38" height="48" viewBox="0 0 38 48" fill="none" xmlns="http://www.w3.org/2000/svg">
  <!-- Outer shadow -->
  <ellipse cx="19" cy="45" rx="8" ry="3" fill="black" fill-opacity="0.2"/>

  <!-- Main marker shape -->
  <path d="M19 0C11.268 0 5 6.268 5 14C5 24.5 19 45 19 45C19 45 33 24.5 33 14C33 6.268 26.732 0 19 0Z" fill="#E74C3C"/>

  <!-- Inner gradient for depth -->
  <path d="M19 2C12.373 2 7 7.373 7 14C7 23.5 19 42 19 42C19 42 31 23.5 31 14C31 7.373 25.627 2 19 2Z" fill="url(#gradient)"/>

  <!-- Center circle -->
  <circle cx="19" cy="14" r="7" fill="white"/>

  <!-- Inner dot -->
  <circle cx="19" cy="14" r="4" fill="#E74C3C"/>

  <defs>
    <linearGradient id="gradient" x1="19" y1="0" x2="19" y2="42" gradientUnits="userSpaceOnUse">
      <stop offset="0%" stop-color="#FF6B6B"/>
      <stop offset="100%" stop-color="#E74C3C"/>
    </linearGradient>
  </defs>
</svg>
